<svg width="14" height="21" viewBox="0 0 14 21" fill="none" xmlns="http://www.w3.org/2000/svg">
<path d="M4.21252 17.1522L5.97124 20.4321H5.99567L7.77881 17.1522L5.99567 15.5769L4.21252 17.1522Z" fill="white"/>
<path d="M5.99567 1.58081C5.60484 1.75202 0.670654 4.04191 0.670654 7.70146C0.670654 10.826 3.57743 15.577 3.57743 15.577L5.99567 13.4583L8.41391 15.577C8.41391 15.577 11.3207 10.8474 11.3207 7.70146C11.2963 4.04191 6.36207 1.75202 5.99567 1.58081ZM7.5834 12.0244L5.99567 10.6334L4.40793 12.0244C4.33465 11.8318 3.25988 9.30652 3.25988 7.65865C3.25988 5.43296 5.80025 4.19172 5.99567 4.10611C6.19108 4.17031 8.73145 5.43296 8.73145 7.65865C8.73145 9.30652 7.65668 11.8318 7.5834 12.0244Z" fill="white"/>
<path d="M11.3092 -5.14109e-05L9.49561 1.58887L11.3092 3.17779L13.1228 1.58887L11.3092 -5.14109e-05Z" fill="white"/>
<path d="M7.26575 7.61443C7.26575 8.21864 6.70392 8.71495 6.01996 8.71495C5.336 8.71495 4.77417 8.21864 4.77417 7.61443C4.77417 7.01023 5.336 6.51392 6.01996 6.51392C6.70392 6.51392 7.26575 7.01023 7.26575 7.61443Z" fill="white"/>
</svg>
